<svg xmlns="http://www.w3.org/2000/svg" width="1080" height="1080" viewBox="0 0 1080 1080" version="1.1"><path d="M 389.120 294.143 C 381.062 295.458, 372.454 300.474, 367.991 306.454 C 360.980 315.849, 359.533 319.625, 359.546 328.500 C 359.556 335.286, 360.493 339.764, 365.717 358 C 374.067 387.151, 384.165 424.139, 390.697 449.500 C 398.230 478.752, 403.768 498.016, 405.109 499.631 C 406.040 500.753, 414.365 501, 451.181 501 C 480.885 501, 495.909 500.661, 495.500 500 C 494.774 498.825, 494.519 498.855, 508 498.523 C 518.801 498.257, 521.213 498.611, 518.857 500.117 C 518.084 500.611, 539.008 500.880, 567.500 500.742 L 617.500 500.500 617.763 465.401 C 618.023 430.579, 618.008 430.280, 615.829 427.510 L 613.634 424.719 590.267 425.434 L 566.900 426.148 567.029 421.824 C 567.128 418.492, 561.725 395.841, 560.433 394.174 C 560.294 393.994, 552.152 395.722, 542.340 398.015 C 526.868 401.629, 481.447 411.990, 473.897 413.627 C 470.897 414.277, 470.766 412.832, 475.910 435.926 C 477.554 443.311, 478.704 449.670, 478.465 450.057 C 478.225 450.444, 477.010 450.982, 475.765 451.252 C 474.519 451.522, 472.792 452.043, 471.927 452.411 C 470.639 452.957, 469.426 450.216, 465.235 437.289 C 458.902 417.754, 446.992 379.010, 437.883 348.311 C 429.371 319.622, 426.825 312.738, 422.573 306.919 C 415.180 296.800, 402.503 291.959, 389.120 294.143 M 626.514 304.629 C 625.618 305.525, 625.122 306.875, 625.411 307.629 C 625.700 308.383, 625.598 309, 625.184 309 C 624.770 309, 623.666 311.066, 622.730 313.592 C 620.476 319.671, 621.508 321.374, 628.732 323.501 C 631.905 324.436, 635.400 325.554, 636.500 325.986 C 637.600 326.418, 640.525 327.332, 643 328.016 C 645.475 328.701, 649.918 330.079, 652.873 331.079 C 657.436 332.622, 658.454 332.689, 659.623 331.520 C 660.380 330.762, 661 329.511, 661 328.738 C 661 327.965, 661.332 327.002, 661.737 326.596 C 662.504 325.829, 662.595 325.345, 662.848 320.691 C 662.934 319.102, 663.434 318.150, 664 318.500 C 664.550 318.840, 665 318.416, 665 317.559 C 665 316.702, 664.550 316, 664 316 C 663.450 316, 663 315.339, 663 314.531 C 663 313.572, 662.423 313.284, 661.336 313.701 C 660.120 314.168, 659.895 313.979, 660.500 313 C 661.105 312.021, 660.880 311.832, 659.664 312.299 C 658.748 312.650, 658 312.454, 658 311.862 C 658 311.268, 657.252 311.073, 656.330 311.427 C 655.411 311.779, 654.379 311.614, 654.036 311.059 C 653.693 310.504, 652.307 309.926, 650.956 309.775 C 649.605 309.624, 648.275 309.210, 648 308.855 C 647.439 308.132, 631.023 303, 629.270 303 C 628.650 303, 627.410 303.733, 626.514 304.629 M 516.908 318.666 C 516.609 319.483, 481.508 328, 478.441 328 C 478.198 328, 478 328.669, 478 329.486 C 478 330.304, 475.350 337.391, 472.111 345.236 C 465.397 361.498, 463 368.961, 463 373.600 C 463 378.338, 463.923 380, 466.555 380 C 468.720 380, 521.842 367.939, 542.500 362.757 C 552.870 360.156, 553.470 359.273, 549.779 352.026 C 548.237 349, 542.839 343.331, 533.093 334.504 C 525.169 327.327, 518.378 320.577, 518.001 319.503 C 517.624 318.429, 517.133 318.053, 516.908 318.666 M 618.996 331.917 C 618.988 335.414, 614.743 339.993, 603.891 348.210 C 587.721 360.454, 583.326 365.457, 581.568 373.626 C 580.830 377.054, 582.783 379.988, 585.821 380.015 C 590.139 380.055, 590.269 381.277, 587.110 392.104 C 585.441 397.822, 583.165 405.140, 582.051 408.367 C 579.810 414.865, 580.019 416, 583.458 416 C 585.964 416, 586.765 414.179, 593.791 392.500 C 596.231 384.971, 597.017 383.556, 598.604 383.846 C 599.647 384.036, 611.750 387.695, 625.500 391.978 C 639.250 396.260, 653.135 400.351, 656.357 401.067 C 661.844 402.289, 662.283 402.249, 663.318 400.435 C 664.900 397.664, 665.206 396.248, 665.711 389.352 C 666.099 384.064, 665.722 382.203, 663.023 376.053 C 661.297 372.120, 658.783 365.527, 657.436 361.401 C 655.341 354.984, 655.116 353.082, 655.877 348.228 C 656.367 345.109, 656.576 342.058, 656.342 341.449 C 655.886 340.262, 623.673 330.134, 620.750 330.259 C 619.788 330.300, 618.998 331.046, 618.996 331.917 M 678.589 412.137 C 678.803 412.487, 678.261 413.368, 677.385 414.096 C 676.509 414.823, 675.389 416.476, 674.898 417.769 C 674.406 419.062, 673.613 419.879, 673.135 419.583 C 672.657 419.288, 667.819 427.906, 662.383 438.735 C 656.947 449.563, 651.487 459.923, 650.250 461.756 C 649.013 463.589, 647.997 465.406, 647.994 465.794 C 647.990 466.182, 647.385 467.655, 646.648 469.067 C 645.912 470.478, 644.979 472.953, 644.577 474.567 C 643.886 477.331, 639.493 487.991, 636.400 494.404 C 635.630 496.001, 635 498.138, 635 499.154 C 635 500.912, 636.594 501, 668.429 501 C 697.485 501, 702.063 500.794, 703.429 499.429 C 704.293 498.564, 705 496.978, 705 495.904 C 705 492.307, 708.982 482.553, 712.593 477.305 C 716.938 470.990, 727.545 462.599, 734.146 460.255 C 736.815 459.306, 739 458.150, 739 457.686 C 739 457.221, 740.462 457.129, 742.250 457.481 C 744.667 457.957, 745.116 457.854, 744 457.076 C 742.819 456.253, 743.177 456.027, 745.685 456.015 C 751.415 455.988, 753.646 454.487, 755.338 449.520 C 757.426 443.394, 756.238 440.916, 749.824 438.017 C 747.088 436.781, 744.610 435.148, 744.319 434.390 C 744.028 433.632, 743.388 433.260, 742.895 433.565 C 742.403 433.869, 742 433.641, 742 433.059 C 742 432.477, 740.896 432, 739.547 432 C 737.088 432, 734.945 431.282, 727.500 427.965 C 725.300 426.985, 720.350 425.155, 716.500 423.898 C 712.650 422.642, 709.072 421.251, 708.550 420.807 C 708.027 420.363, 706.776 420, 705.769 420 C 704.761 420, 703.679 419.328, 703.364 418.506 C 703.048 417.684, 702.400 417.253, 701.922 417.548 C 701.444 417.843, 698.194 416.941, 694.698 415.542 C 691.203 414.144, 687.478 412.993, 686.422 412.985 C 685.161 412.975, 684.911 412.708, 685.695 412.210 C 686.352 411.792, 684.934 411.462, 682.544 411.475 C 680.155 411.489, 678.375 411.787, 678.589 412.137 M 475.243 458.651 C 471.747 460.375, 466 465.770, 466 467.330 C 466 468.749, 476.296 467.428, 480.395 465.483 C 484.308 463.626, 485.805 460.675, 483.960 458.452 C 482.400 456.572, 479.317 456.643, 475.243 458.651 M 624.643 732.028 C 617.963 734.030, 615 740.460, 617.675 747.146 C 621.224 756.015, 634.114 756.481, 638.551 747.901 C 641.716 741.781, 639.089 735.188, 632.364 732.379 C 628.675 730.838, 628.624 730.835, 624.643 732.028 M 462.669 734.045 C 461.239 735.171, 459.641 737.641, 459.118 739.535 C 456.338 749.602, 466.983 757.668, 476.010 752.335 C 483.083 748.157, 482.675 736.881, 475.316 733.117 C 471.782 731.310, 465.567 731.766, 462.669 734.045 M 494.451 762.500 C 488.736 769.558, 479.501 774.189, 470.872 774.322 C 461.563 774.466, 455.091 771.904, 447.869 765.218 L 441.831 759.628 419.575 760.734 C 395.741 761.918, 391.993 762.718, 386.750 767.740 C 383.460 770.892, 382.950 776.754, 385.750 779.251 C 390.054 783.091, 424.299 784.863, 510 785.680 C 573.972 786.290, 645.473 784.971, 686 782.434 C 712.530 780.772, 717.412 779.967, 719.007 776.987 C 721.437 772.446, 716.578 765.988, 709.277 764.056 C 704.425 762.771, 672.836 760.033, 662.634 760.013 L 655.767 760 649.954 765.382 C 643.147 771.684, 637.344 774, 628.359 774 C 617.700 774, 606.373 768.148, 602.226 760.500 C 601.169 758.550, 599.850 758.487, 549.821 758 L 498.500 757.500 494.451 762.500" stroke="none" fill="#de9971" fill-rule="evenodd"/><path d="M 504.500 299.642 C 503.400 299.893, 498.450 300.997, 493.500 302.095 C 488.550 303.193, 482.137 304.758, 479.250 305.574 L 474 307.056 474 311.346 C 474 315.591, 476.503 325.783, 477.910 327.269 C 478.311 327.692, 487.327 326.145, 497.946 323.830 L 517.254 319.622 516.686 313.561 C 516.373 310.227, 515.528 305.700, 514.809 303.500 C 513.631 299.900, 513.150 299.484, 510 299.343 C 508.075 299.257, 505.600 299.391, 504.500 299.642 M 619.228 320.294 C 615.835 321.834, 615.282 325.607, 618.023 328.525 C 619.270 329.852, 620.683 330.696, 621.163 330.399 C 622.287 329.705, 655.392 339.933, 655.833 341.111 C 656.492 342.868, 659.985 341.952, 661.511 339.623 C 662.808 337.644, 662.862 336.764, 661.832 334.373 C 660.176 330.528, 660.010 330.366, 659.150 331.756 C 658.590 332.663, 657.080 332.505, 652.955 331.108 C 649.955 330.092, 645.475 328.701, 643 328.016 C 640.525 327.332, 637.600 326.418, 636.500 325.986 C 635.400 325.554, 631.911 324.438, 628.747 323.506 C 625.583 322.574, 622.658 321.239, 622.247 320.538 C 621.694 319.594, 620.909 319.531, 619.228 320.294 M 712.994 341.852 C 708.402 346.445, 705.123 361.912, 704.912 379.974 C 704.823 387.660, 703.377 399.714, 703.134 394.802 C 702.713 386.308, 693.026 363.739, 688.157 359.909 C 684.668 357.165, 680.260 357.743, 677.622 361.292 C 675.930 363.568, 675.573 365.416, 675.688 371.292 C 675.841 379.077, 677.698 386.220, 683.373 400.850 C 685.368 405.993, 687 410.563, 687 411.005 C 687 411.448, 685.222 411.571, 683.048 411.280 C 679.615 410.819, 678.697 411.149, 676.048 413.798 C 673.243 416.603, 671.690 420.928, 674 419.500 C 674.550 419.160, 675 418.312, 675 417.615 C 675 416.919, 676.106 415.310, 677.458 414.040 C 679.548 412.076, 680.557 411.832, 684.208 412.408 C 686.568 412.780, 691.325 414.210, 694.777 415.585 C 698.229 416.960, 701.444 417.843, 701.922 417.548 C 702.400 417.253, 703.048 417.684, 703.364 418.506 C 703.679 419.328, 704.761 420, 705.769 420 C 706.776 420, 708.028 420.363, 708.550 420.807 C 709.073 421.251, 712.650 422.642, 716.500 423.898 C 720.350 425.155, 725.300 426.985, 727.500 427.965 C 738.759 432.982, 738.667 432.978, 749.928 428.881 C 771.304 421.103, 782 414.259, 782 408.358 C 782 397.806, 766.951 398.030, 745.026 408.908 C 741.552 410.632, 738.538 411.871, 738.328 411.661 C 738.119 411.452, 742.374 406.155, 747.784 399.890 C 761.888 383.558, 765 378.652, 765 372.747 C 765 368.335, 764.749 367.848, 761.734 366.410 C 758.692 364.959, 758.080 364.998, 752.782 366.980 C 745.649 369.649, 738.922 375.647, 730.874 386.514 C 727.435 391.156, 724.511 394.845, 724.376 394.710 C 724.241 394.575, 724.996 388.847, 726.054 381.982 C 728.163 368.297, 728.567 352.583, 726.960 346.795 C 725.778 342.539, 721.841 339, 718.288 339 C 716.936 339, 714.573 340.273, 712.994 341.852 M 655.052 352.219 C 654.979 354.645, 659.307 367.586, 663.023 376.053 C 665.722 382.203, 666.099 384.064, 665.711 389.352 C 665.206 396.248, 664.900 397.664, 663.318 400.435 C 662.283 402.249, 661.844 402.289, 656.357 401.067 C 653.135 400.351, 639.250 396.260, 625.500 391.978 C 611.750 387.695, 599.647 384.036, 598.604 383.846 C 597.017 383.556, 596.231 384.971, 593.791 392.500 C 586.765 414.179, 585.964 416, 583.458 416 C 580.019 416, 579.810 414.865, 582.051 408.367 C 583.165 405.140, 585.441 397.822, 587.110 392.104 C 590.269 381.277, 590.139 380.055, 585.821 380.015 C 584.898 380.007, 583.414 379.271, 582.524 378.381 C 581.633 377.490, 580.770 376.928, 580.606 377.131 C 579.548 378.438, 566.998 421.041, 566.999 423.323 L 567 426.145 590.317 425.432 L 613.634 424.719 615.841 427.525 C 618.036 430.316, 618.047 430.537, 617.774 465.666 L 617.500 501.001 626.250 501 C 634.090 501, 635 500.808, 635 499.154 C 635 498.138, 635.630 496.001, 636.400 494.404 C 638.963 489.090, 643.767 477.534, 644.468 475 C 644.848 473.625, 645.762 471.150, 646.499 469.500 C 647.235 467.850, 649.409 459.750, 651.329 451.500 C 653.249 443.250, 657.318 427.950, 660.372 417.500 C 669.454 386.422, 669.410 387.703, 662.024 368.566 C 659.887 363.030, 657.456 356.700, 656.621 354.500 C 655.786 352.300, 655.080 351.274, 655.052 352.219 M 551.433 359.940 C 549.893 361.437, 471.291 380, 466.493 380 C 465.122 380, 464.009 380.563, 464.020 381.250 C 464.052 383.244, 470.796 413.129, 471.335 413.669 C 471.799 414.132, 480.604 412.227, 521 402.924 C 555.250 395.037, 560 393.814, 560 392.885 C 560 391.810, 552.890 359.623, 552.574 359.267 C 552.460 359.138, 551.947 359.441, 551.433 359.940 M 264.200 411.843 C 259.490 414.355, 257.014 418.598, 257.007 424.173 C 256.998 429.939, 260.371 434.453, 265.814 435.965 C 267.996 436.571, 283.463 436.991, 303.715 436.994 C 335.676 437, 337.993 437.119, 338.896 438.806 C 340.438 441.687, 346.482 461.003, 351.884 480.318 C 354.625 490.118, 357.413 498.793, 358.080 499.597 C 359.050 500.765, 361.813 501.002, 371.896 500.779 L 384.500 500.500 384.188 497.594 C 383.877 494.704, 365.276 431.307, 362.393 423.314 C 360.547 418.196, 354.466 412.501, 349.321 411.072 C 346.916 410.404, 331.042 410.025, 306.500 410.047 C 271.237 410.080, 267.184 410.252, 264.200 411.843 M 745.500 435.612 C 746.600 436.463, 749.126 437.824, 751.114 438.634 C 756.142 440.685, 757.324 443.693, 755.362 449.450 C 753.548 454.776, 753.347 454.936, 747.200 455.972 L 742.500 456.765 747.679 456.882 C 753.858 457.023, 755.192 455.950, 757.507 448.978 C 759.076 444.256, 759.076 443.765, 757.509 441.373 C 756.587 439.967, 753.383 437.733, 750.388 436.408 C 744.137 433.643, 742.643 433.400, 745.500 435.612 M 475.243 458.651 C 471.747 460.375, 466 465.770, 466 467.330 C 466 468.749, 476.296 467.428, 480.395 465.483 C 484.308 463.626, 485.805 460.675, 483.960 458.452 C 482.400 456.572, 479.317 456.643, 475.243 458.651 M 748.734 474.088 C 738.604 476.475, 728.803 484.616, 724.442 494.266 C 721.998 499.674, 721.566 502.057, 721.189 512.250 L 720.753 524 714.811 524 C 711.543 524, 708.045 524.441, 707.039 524.979 C 703.054 527.112, 701.673 538.402, 704.635 544.643 C 706.664 548.919, 710.532 551, 716.450 551 L 721 551 721 587.944 L 721 624.888 723.413 627.694 C 725.669 630.318, 726.407 630.522, 734.791 630.845 C 743.458 631.178, 743.862 631.095, 746.948 628.338 L 750.139 625.486 750.320 588.493 L 750.500 551.500 761 550.960 C 766.775 550.664, 772.253 550.066, 773.173 549.633 C 776.440 548.094, 778.289 542.194, 777.722 535.120 C 777.280 529.623, 776.767 528.196, 774.542 526.282 C 772.125 524.204, 770.902 524, 760.845 524 L 749.801 524 750.151 515.022 C 750.472 506.773, 750.725 505.818, 753.271 503.272 C 755.835 500.707, 756.621 500.504, 763.771 500.558 C 768.022 500.589, 773.635 500.759, 776.245 500.934 C 779.229 501.135, 781.606 500.742, 782.650 499.877 C 785.303 497.676, 787 492.493, 787 486.588 C 787 479.180, 784.536 476.333, 776.486 474.439 C 769.900 472.890, 754.639 472.697, 748.734 474.088 M 496.730 498.813 C 495.765 498.999, 495.233 499.567, 495.547 500.076 C 496.307 501.305, 517.084 501.238, 519 500 C 519.825 499.467, 520.050 498.954, 519.500 498.860 C 517.518 498.523, 498.444 498.483, 496.730 498.813 M 545 523.059 C 532.857 524.466, 518.938 531.582, 511.632 540.117 C 493.318 561.512, 494.881 597.393, 514.984 617.063 C 525.901 627.746, 537.085 632.256, 553 632.392 C 564.845 632.493, 571.797 631.077, 580.280 626.833 C 591.805 621.067, 597.840 613.414, 595.979 606.925 C 594.714 602.515, 588.415 596.209, 584.081 595.012 C 581.061 594.178, 580.004 594.415, 576.213 596.774 C 565.162 603.653, 563.757 604.250, 557.434 604.757 C 540.499 606.117, 529.338 596.421, 528.221 579.379 C 527.320 565.643, 533.829 554.910, 545.089 551.566 C 555.126 548.585, 563.143 550.023, 571.857 556.367 C 574.411 558.226, 577.465 560.044, 578.645 560.407 C 581.773 561.371, 588.509 558.324, 591.973 554.378 C 597.729 547.822, 597.250 543.058, 590.136 536.140 C 579.360 525.659, 563.137 520.957, 545 523.059 M 644 523.059 C 624.579 525.309, 608.455 538.588, 602.397 557.321 C 599.004 567.812, 598.541 584.102, 601.370 593.448 C 608.260 616.207, 625.597 630.430, 649.040 632.555 C 666.932 634.176, 686.413 627.314, 694.119 616.677 C 698.379 610.797, 697.945 608.625, 691.160 601.840 C 683.842 594.522, 682.038 594.395, 673.014 600.561 C 664.640 606.282, 656.401 608.079, 647.588 606.107 C 638.963 604.177, 631.829 597.927, 629.557 590.311 L 628.904 588.121 662.702 587.811 C 698.383 587.483, 699.646 587.320, 702.185 582.727 C 703.936 579.560, 703.572 566.481, 701.539 559.486 C 700.596 556.241, 698.680 551.330, 697.283 548.572 C 694.021 542.134, 684.319 532.031, 678.238 528.741 C 668.930 523.703, 656.393 521.623, 644 523.059 M 229.618 524.112 C 216.972 527.081, 202.998 538.103, 197.129 549.740 C 185.819 572.161, 190.369 601.081, 207.704 616.966 C 219.945 628.183, 233.576 632.702, 249.785 630.917 C 256.941 630.129, 266.662 626.521, 270.160 623.355 C 273.146 620.653, 274.238 622.635, 273.467 629.362 C 272.603 636.903, 270.173 641.888, 265.473 645.762 C 260.770 649.638, 255.914 651, 246.793 651 C 237.272 651, 231.787 649.321, 222.596 643.593 C 213.144 637.701, 210.474 637.626, 205.519 643.110 C 198.218 651.192, 197.281 657.100, 202.405 662.747 C 213.715 675.210, 240.962 682.165, 260.472 677.568 C 283.568 672.127, 298.938 656.289, 301.930 634.851 C 302.725 629.158, 303.001 610.958, 302.798 577.663 L 302.500 528.826 299.694 526.413 C 297.253 524.314, 295.888 524, 289.194 524.004 C 283.289 524.007, 280.744 524.468, 278.250 525.989 C 276.462 527.079, 274.993 528.315, 274.985 528.735 C 274.976 529.156, 274.580 530.115, 274.103 530.867 C 273.407 531.966, 272.481 531.717, 269.369 529.590 C 262.900 525.171, 254.074 522.987, 243.145 523.100 C 237.840 523.156, 231.753 523.611, 229.618 524.112 M 363.500 524.399 C 357.239 525.938, 354.345 527.441, 350.336 531.232 C 347.065 534.327, 345 534.248, 345 531.030 C 345 530.011, 343.565 527.970, 341.811 526.494 C 338.811 523.970, 338.122 523.831, 330.229 524.155 C 322.200 524.485, 321.709 524.642, 318.918 527.766 L 316 531.032 316 577.065 C 316 628.435, 315.925 627.830, 322.574 630.024 C 324.561 630.680, 329.290 631.040, 333.097 630.825 C 338.598 630.514, 340.469 629.976, 342.255 628.192 C 344.437 626.013, 344.515 625.214, 345.042 599.725 C 345.495 577.814, 345.870 572.851, 347.323 569.554 C 351.744 559.520, 358.707 554.699, 370.509 553.501 C 378.531 552.687, 381.289 551.275, 383.604 546.799 C 385.770 542.610, 385.780 532.410, 383.623 528.239 C 381.052 523.266, 373.764 521.876, 363.500 524.399 M 419.223 525.530 C 396.586 533.242, 382.691 552.818, 382.691 577 C 382.691 596.909, 391.499 613.095, 408.313 624.082 C 430.073 638.302, 461.994 633.831, 479.020 614.178 C 485.386 606.830, 490.834 594.916, 492.210 585.331 C 496.131 558.037, 478.691 531.364, 452.458 524.531 C 443.037 522.077, 428.035 522.528, 419.223 525.530 M 787.500 525.155 C 781.760 528.294, 781.669 532.612, 787.068 545.665 C 789.305 551.074, 792.404 558.875, 793.955 563 C 795.506 567.125, 802.093 583.325, 808.595 599 C 817.885 621.400, 820.405 628.463, 820.369 632 C 820.317 636.980, 816.846 645.924, 813.948 648.547 C 811.531 650.734, 804.489 651.505, 799.504 650.129 C 794.461 648.736, 791.561 650.477, 788.899 656.494 C 784.596 666.223, 785.850 671.827, 793.286 676.086 C 797.040 678.236, 798.702 678.500, 808.500 678.500 C 818.634 678.500, 819.922 678.278, 824.856 675.680 C 827.801 674.128, 832.195 670.819, 834.619 668.324 C 841.444 661.302, 841.897 660.242, 870.032 585.500 C 891.689 527.967, 890.251 532.386, 888.454 528.911 C 886.410 524.958, 883.525 523.999, 873.685 524.004 C 867.290 524.007, 864.789 524.441, 862.250 525.989 C 860.462 527.079, 858.992 528.090, 858.983 528.235 C 858.974 528.381, 854.076 543.125, 848.099 561 L 837.232 593.500 835.177 588.808 C 834.046 586.228, 829.759 574.753, 825.651 563.308 C 815.685 535.548, 812.453 527.838, 809.910 525.750 C 808.218 524.360, 805.896 524.006, 798.639 524.030 C 793.613 524.047, 788.600 524.553, 787.500 525.155 M 641.500 549.896 C 636.598 552.165, 632.612 556.288, 630.553 561.218 C 629.699 563.263, 629 565.175, 629 565.468 C 629 565.761, 639.406 566, 652.125 566 L 675.250 566 674.617 562.834 C 672.299 551.244, 654.015 544.102, 641.500 549.896 M 237.222 551.405 C 231.067 553.420, 226.858 557.007, 223.580 563.030 C 215.638 577.623, 222.176 597.465, 236.540 602.359 C 247.809 606.199, 260.178 603.283, 267.145 595.144 C 271.517 590.036, 273.003 585.268, 272.990 576.384 C 272.975 565.343, 268.176 557.245, 258.764 552.378 C 254.574 550.211, 242.529 549.667, 237.222 551.405 M 424.864 553.787 C 413.585 559.646, 408.473 573.168, 412.471 586.568 C 414.394 593.013, 418.527 597.878, 425.144 601.490 C 429.580 603.910, 431.703 604.419, 437.500 604.456 C 443.527 604.494, 445.265 604.069, 450 601.398 C 459.664 595.947, 463.983 588.283, 463.994 576.566 C 464.001 569.363, 461.330 563.289, 455.794 557.916 C 448.174 550.521, 434.631 548.713, 424.864 553.787 M 414.402 651.394 C 413.851 652.832, 424.546 685.288, 427.373 690.754 C 429.329 694.536, 432.963 697.474, 437.812 699.193 C 440.766 700.240, 464.319 700.500, 556.176 700.500 C 670.469 700.500, 670.862 700.493, 673.676 698.435 C 675.229 697.300, 677.346 694.669, 678.379 692.588 C 680.743 687.828, 679.537 682.847, 674.957 678.458 L 671.869 675.500 560.685 675 L 449.500 674.500 446.745 666.500 C 445.230 662.100, 443.280 656.587, 442.413 654.250 L 440.835 650 427.886 650 C 417.734 650, 414.822 650.301, 414.402 651.394 M 462.230 712.550 C 455.270 714.424, 452.292 716.077, 447.591 720.676 C 439.503 728.589, 436.241 741.379, 439.458 752.572 C 440.874 757.496, 442.215 759.533, 447.380 764.603 C 454.776 771.863, 461.086 774.473, 470.872 774.322 C 483.193 774.132, 497.066 763.895, 500.058 752.786 C 501.716 746.627, 501.459 737.898, 499.440 731.819 C 496.738 723.683, 488.392 715.819, 479.569 713.094 C 471.741 710.676, 469.458 710.605, 462.230 712.550 M 619.324 712.379 C 606.452 716.590, 598.335 726.953, 597.242 740.573 C 596.356 751.609, 598.772 757.820, 607.195 766.158 C 614.406 773.296, 628.636 776.047, 639.392 772.382 C 646.493 769.962, 655.359 761.317, 658.050 754.187 C 662.134 743.371, 659.486 729.971, 651.524 721.158 C 644.162 713.009, 629.565 709.029, 619.324 712.379 M 624.643 732.028 C 617.963 734.030, 615 740.460, 617.675 747.146 C 621.224 756.015, 634.114 756.481, 638.551 747.901 C 641.716 741.781, 639.089 735.188, 632.364 732.379 C 628.675 730.838, 628.624 730.835, 624.643 732.028 M 462.669 734.045 C 461.239 735.171, 459.641 737.641, 459.118 739.535 C 456.338 749.602, 466.983 757.668, 476.010 752.335 C 483.083 748.157, 482.675 736.881, 475.316 733.117 C 471.782 731.310, 465.567 731.766, 462.669 734.045" stroke="none" fill="#1d3b35" fill-rule="evenodd"/></svg>