<svg xmlns="http://www.w3.org/2000/svg" width="1080" height="1080" viewBox="0 0 1080 1080" version="1.1"><path d="M 228.754 393.599 C 219.866 396.332, 213.695 404.965, 213.814 414.500 C 213.884 420.104, 218.524 439.367, 226.460 467 C 229.383 477.175, 232.104 487.050, 232.509 488.943 C 232.913 490.837, 233.835 492.978, 234.558 493.701 C 235.621 494.764, 248.043 494.966, 299.686 494.757 L 363.500 494.500 370.214 468.211 C 373.907 453.751, 377.511 440.701, 378.224 439.211 C 379.023 437.538, 380.472 436.379, 382.009 436.183 C 383.379 436.009, 386.130 435.445, 388.123 434.929 C 391.373 434.088, 391.826 433.555, 392.525 429.746 C 393.534 424.247, 393.415 424.682, 394.293 423.300 C 394.747 422.586, 394.336 421.716, 393.278 421.152 C 388.656 418.686, 357.783 409, 354.547 409 C 349.280 409, 341.900 411.029, 342.665 412.267 C 343.017 412.837, 342.476 413.910, 341.462 414.652 C 340.447 415.393, 340.154 416, 340.809 416 C 341.464 416, 342 416.450, 342 417 C 342 417.550, 341.273 418, 340.383 418 C 339.259 418, 338.926 418.609, 339.290 420 C 339.577 421.100, 339.396 422, 338.887 422 C 338.378 422, 338.261 423.192, 338.627 424.649 C 339.124 426.630, 338.976 427.103, 338.039 426.524 C 337.121 425.957, 336.966 426.318, 337.460 427.875 C 337.878 429.189, 337.702 430, 337 430 C 336.320 430, 336.120 430.802, 336.500 432 C 336.856 433.121, 336.680 434, 336.099 434 C 335.529 434, 335.322 434.675, 335.638 435.500 C 335.955 436.326, 335.668 437, 335 437 C 334.332 437, 334.045 437.674, 334.362 438.500 C 334.678 439.325, 334.543 440, 334.062 440 C 333.581 440, 333.441 440.970, 333.751 442.156 C 334.174 443.774, 333.983 444.108, 332.988 443.492 C 332.033 442.903, 331.833 443.121, 332.274 444.271 C 332.611 445.151, 332.403 446.032, 331.811 446.230 C 331.218 446.427, 330.681 447.987, 330.617 449.696 C 330.553 451.405, 330.163 452.596, 329.750 452.343 C 329.337 452.089, 329 452.809, 329 453.941 C 329 456.074, 327.561 456.716, 326.527 455.044 C 326.202 454.518, 325.310 454.327, 324.545 454.621 C 323.780 454.914, 322.394 454.271, 321.464 453.191 C 316.257 447.145, 314.881 445.956, 313.837 446.601 C 313.158 447.020, 312.963 446.869, 313.358 446.229 C 314.206 444.858, 311.996 439.884, 310.854 440.590 C 310.384 440.881, 310 440.374, 310 439.465 C 310 438.052, 309.237 437.910, 304.750 438.486 C 301.863 438.856, 297.925 439.533, 296 439.988 C 294.075 440.444, 290.402 441.105, 287.839 441.457 C 282.779 442.151, 280.700 444.577, 283.446 446.584 C 285.139 447.822, 285.626 449.505, 284 448.500 C 283.450 448.160, 283 448.720, 283 449.745 C 283 450.770, 281.660 453.722, 280.022 456.304 C 278.384 458.887, 277.372 461.014, 277.772 461.030 C 278.172 461.047, 277.703 461.525, 276.729 462.092 C 275.755 462.659, 275.121 463.433, 275.320 463.811 C 275.815 464.750, 272.183 468.109, 271.642 467.214 C 271.405 466.821, 267.795 453.327, 263.620 437.228 C 259.444 421.128, 255.297 406.503, 254.402 404.728 C 251.621 399.207, 246.882 395.042, 241.596 393.473 C 235.665 391.711, 234.866 391.719, 228.754 393.599 M 415.631 435.027 C 414.230 436.692, 413.338 438.717, 413.649 439.527 C 413.960 440.337, 413.689 441, 413.048 441 C 412.365 441, 412.206 441.518, 412.663 442.250 C 414.009 444.405, 413.918 446.165, 412.239 450.397 C 408.946 458.697, 403.898 466.145, 400.647 467.497 C 397.564 468.778, 385.539 470.678, 385.460 469.896 C 385.437 469.678, 383.451 471.059, 381.046 472.964 C 376.976 476.187, 371.967 484.812, 369.545 492.766 L 368.855 495.031 397.178 494.766 L 425.500 494.500 425.190 492 C 425.020 490.625, 424.637 487.594, 424.340 485.264 C 423.883 481.670, 424.369 480.003, 427.552 474.264 C 429.615 470.544, 432.218 465.813, 433.337 463.750 C 435.249 460.225, 436.874 459.403, 440.850 459.948 C 441.593 460.050, 441.978 459.766, 441.705 459.317 C 441.433 458.868, 441.923 457.840, 442.795 457.033 C 444.209 455.724, 444.306 455.779, 443.688 457.533 C 443.120 459.147, 443.364 459.065, 445.048 457.077 C 447.614 454.048, 447.459 447.507, 444.821 447.487 C 443.897 447.480, 442.772 447.071, 442.321 446.577 C 441.852 446.064, 442.036 445.988, 442.750 446.399 C 445.111 447.757, 443.999 446.230, 441.377 444.511 C 439.640 443.373, 439.025 443.250, 439.557 444.146 C 439.999 444.891, 439.042 444.127, 437.430 442.450 C 433.706 438.574, 422.872 432, 420.208 432 C 419.091 432, 417.032 433.362, 415.631 435.027 M 277.250 507.785 C 269.908 507.989, 267 508.422, 267 509.311 C 267 509.994, 269.176 517.066, 271.836 525.026 L 276.672 539.500 288.363 539.782 L 300.054 540.064 299.420 537.282 C 298.674 534.010, 293.115 512.244, 292.416 509.860 C 291.793 507.735, 289.642 507.440, 277.250 507.785 M 237.397 509.409 C 237.099 510.183, 238.426 515.509, 240.345 521.243 C 242.264 526.978, 244.339 533.544, 244.956 535.835 L 246.077 540 255.146 540 C 261.982 540, 264.099 539.692, 263.748 538.750 C 263.491 538.063, 261.092 530.862, 258.416 522.750 L 253.552 508 245.744 508 C 239.953 508, 237.798 508.364, 237.397 509.409 M 306.587 517.227 C 307.937 522.327, 309.970 529.538, 311.104 533.250 L 313.166 540 324.972 540 L 336.777 540 337.466 536.250 C 337.845 534.188, 338.763 530.475, 339.506 528 C 341.301 522.023, 342.330 509, 341.007 509 C 340.453 509, 339.955 510.012, 339.900 511.250 C 339.806 513.386, 339.765 513.373, 339.106 511 L 338.412 508.500 321.272 508.227 L 304.132 507.953 306.587 517.227 M 357.404 508.686 C 355.595 509.042, 355.131 510.292, 354.021 517.799 C 353.314 522.585, 352.125 528.525, 351.379 531 C 348.641 540.079, 348.561 540, 360.425 540 L 370.851 540 376.925 524.448 C 380.266 515.895, 383 508.695, 383 508.448 C 383 507.899, 360.325 508.110, 357.404 508.686 M 393.167 514.251 C 391.884 517.688, 389.555 524.100, 387.992 528.500 C 386.430 532.900, 384.844 537.288, 384.468 538.250 C 383.846 539.845, 384.669 540, 393.786 540 C 400.848 540, 403.935 539.633, 404.294 538.750 C 413.637 515.778, 416 509.767, 416 508.966 C 416 508.407, 411.680 508, 405.750 508.001 L 395.500 508.002 393.167 514.251 M 251.766 554.202 C 251.350 555.450, 256.769 571.603, 259.617 577.605 C 260.513 579.494, 262.429 581.843, 263.873 582.826 C 267.360 585.197, 276.884 587.516, 278.109 586.291 C 278.691 585.709, 277.316 580.279, 274.469 571.927 C 267.223 550.671, 269.008 553, 259.962 553 C 254.782 553, 252.032 553.403, 251.766 554.202 M 281.013 553.217 C 281.020 553.373, 282.757 558.450, 284.873 564.500 L 288.721 575.500 292.217 575.225 C 294.412 575.052, 296.184 575.517, 296.979 576.475 C 298.351 578.128, 307.552 578.702, 306.544 577.071 C 306.229 576.561, 306.831 575.998, 307.883 575.821 C 309.708 575.515, 309.651 574.992, 306.648 564.500 L 303.500 553.500 292.250 553.217 C 286.063 553.062, 281.006 553.062, 281.013 553.217 M 317 553.566 C 317 554.048, 319.245 563.104, 323.118 578.250 C 323.951 581.507, 324.461 582, 326.993 582 C 329.599 582, 329.968 581.601, 330.458 578.250 C 331.104 573.832, 333.926 558.483, 334.687 555.250 C 335.207 553.043, 335.044 553, 326.108 553 C 321.099 553, 317 553.255, 317 553.566 M 347.518 555.250 C 346.698 558.794, 343.006 578.417, 343.003 579.250 C 342.999 580.257, 353.164 580.183, 354.768 579.164 C 355.466 578.722, 357.332 575.016, 358.916 570.930 C 360.499 566.843, 362.735 561.138, 363.883 558.250 L 365.971 553 357.004 553 C 348.527 553, 348.010 553.123, 347.518 555.250 M 377.303 559.250 C 376.146 562.688, 374.042 568.365, 372.628 571.866 L 370.058 578.232 378.779 577.513 C 385.258 576.979, 387.757 576.371, 388.498 575.147 C 389.638 573.265, 393.121 565.305, 396.005 557.986 L 397.971 553 388.689 553 L 379.408 553 377.303 559.250" stroke="none" fill="#d29a6f" fill-rule="evenodd"/><path d="M 393.875 423.500 C 393.806 423.775, 393.650 424.337, 393.527 424.750 C 393.405 425.163, 392.954 427.411, 392.525 429.746 C 391.826 433.555, 391.373 434.088, 388.123 434.929 C 386.130 435.445, 383.379 436.009, 382.009 436.183 C 380.472 436.379, 379.023 437.538, 378.224 439.211 C 377.511 440.701, 373.907 453.751, 370.214 468.211 L 363.500 494.500 299.250 494.757 C 249.585 494.956, 235 494.741, 235 493.807 C 235 492.868, 234.733 492.867, 233.800 493.800 C 233.140 494.460, 231.207 495, 229.503 495 C 226.422 495, 226.388 494.941, 222.512 482.750 C 217.131 465.828, 214.739 460.877, 210.791 458.490 C 207.751 456.652, 205.690 456.500, 183.780 456.500 C 160.694 456.500, 160.001 456.559, 157.863 458.694 C 154.897 461.658, 154.936 466.720, 157.944 469.156 C 160.002 470.822, 162.326 471, 182.034 471 L 203.847 471 209.852 489.750 C 213.155 500.063, 221.965 527.400, 229.430 550.500 C 236.895 573.600, 243.002 593.110, 243.002 593.856 C 243.001 594.601, 241.853 596.574, 240.452 598.239 C 228.514 612.427, 231.600 632.780, 247 641.416 L 252.500 644.500 323.600 644.782 C 391.870 645.052, 394.793 644.988, 397.017 643.187 C 400.063 640.721, 400.122 635.677, 397.139 632.694 L 394.944 630.500 325.357 630.281 L 255.769 630.061 252.466 627.542 C 248.577 624.575, 246.543 619.251, 247.450 614.413 C 248.278 609.999, 253.175 604.402, 257.300 603.155 C 261.875 601.772, 290.867 598.839, 347.500 594.028 C 397.523 589.779, 394.748 590.132, 397.510 587.666 C 399.908 585.525, 402.409 579.800, 417.676 541.500 C 421.841 531.050, 426.993 518.395, 429.125 513.379 C 433.465 503.163, 433.925 499.147, 431.052 496.547 C 429.273 494.937, 426.483 494.797, 398.969 494.941 L 368.834 495.099 369.534 492.799 C 371.908 485.009, 376.977 476.186, 380.836 473.130 C 383.126 471.316, 385 469.079, 385 468.160 C 385 467.240, 387.211 458.390, 389.913 448.494 C 395.839 426.792, 396.613 423, 395.111 423 C 394.500 423, 393.944 423.225, 393.875 423.500 M 293.625 426.552 C 279.767 429.097, 277 430.517, 277 435.078 C 277 438.105, 281.904 444.773, 282.921 443.128 C 283.265 442.572, 286.236 441.659, 289.523 441.100 C 292.810 440.541, 298.200 439.618, 301.500 439.048 C 309.428 437.679, 309.797 437.708, 310.193 439.750 C 310.619 441.949, 315 433.905, 315 430.924 C 315 428.380, 310.671 423.970, 308.295 424.094 C 307.308 424.145, 300.706 425.252, 293.625 426.552 M 836.723 488.039 C 834.095 488.481, 829.948 490.013, 827.507 491.443 C 819.652 496.046, 815.544 503.234, 814.403 514.369 C 813.740 520.841, 813.655 521, 810.862 521 C 806.301 521, 804 524.111, 804 530.277 C 804 536.710, 805.878 539.699, 810.462 540.559 L 813.867 541.198 814.183 563.896 C 814.456 583.434, 814.742 586.964, 816.241 589.248 C 819.994 594.969, 830.419 594.641, 834.048 588.689 C 835.820 585.783, 835.993 583.523, 835.996 563.250 L 836 541 841.326 541 C 848.636 541, 851 538.523, 851 530.860 C 851 523.454, 848.557 521, 841.186 521 L 836 521 836 517.556 C 836 515.357, 836.872 513.097, 838.412 511.308 C 840.558 508.812, 841.509 508.497, 847.050 508.439 C 852.756 508.380, 853.516 508.107, 856.138 505.171 C 861.830 498.801, 858.917 489.915, 850.500 487.972 C 845.894 486.908, 843.374 486.920, 836.723 488.039 M 277.250 507.785 C 269.908 507.989, 267 508.422, 267 509.311 C 267 509.994, 269.176 517.066, 271.836 525.026 L 276.672 539.500 288.363 539.782 L 300.054 540.064 299.420 537.282 C 298.674 534.010, 293.115 512.244, 292.416 509.860 C 291.793 507.735, 289.642 507.440, 277.250 507.785 M 237.603 508.833 C 237.320 509.292, 235.670 509.458, 233.936 509.204 C 230.858 508.752, 230.801 508.815, 231.478 511.898 C 231.859 513.635, 234.109 520.556, 236.477 527.278 L 240.782 539.500 252.511 539.783 C 261.725 540.005, 264.136 539.791, 263.760 538.783 C 263.497 538.077, 261.092 530.862, 258.416 522.750 L 253.552 508 245.835 508 C 241.591 508, 237.886 508.375, 237.603 508.833 M 306.587 517.227 C 307.937 522.327, 309.970 529.538, 311.104 533.250 L 313.166 540 324.972 540 L 336.777 540 337.466 536.250 C 337.845 534.188, 338.763 530.475, 339.506 528 C 341.301 522.023, 342.330 509, 341.007 509 C 340.453 509, 339.955 510.012, 339.900 511.250 C 339.806 513.386, 339.765 513.373, 339.106 511 L 338.412 508.500 321.272 508.227 L 304.132 507.953 306.587 517.227 M 357.404 508.686 C 355.595 509.042, 355.131 510.292, 354.021 517.799 C 353.314 522.585, 352.125 528.525, 351.379 531 C 348.641 540.079, 348.561 540, 360.425 540 L 370.851 540 376.925 524.448 C 380.266 515.895, 383 508.695, 383 508.448 C 383 507.899, 360.325 508.110, 357.404 508.686 M 393.167 514.251 C 391.884 517.688, 389.555 524.100, 387.992 528.500 C 386.430 532.900, 384.844 537.288, 384.468 538.250 C 383.846 539.845, 384.669 540, 393.786 540 C 400.848 540, 403.935 539.633, 404.294 538.750 C 413.637 515.778, 416 509.767, 416 508.966 C 416 508.407, 411.680 508, 405.750 508.001 L 395.500 508.002 393.167 514.251 M 480.176 520.041 C 460.433 524.058, 448.140 541.763, 451.007 562.052 C 454.404 586.081, 479.800 600.682, 500.250 590.363 C 504.699 588.118, 505 588.085, 505 589.834 C 505 592.910, 502.857 598.352, 500.711 600.725 C 499.604 601.948, 496.748 603.695, 494.364 604.605 C 488.547 606.827, 483.028 605.867, 475.672 601.356 C 468.917 597.213, 465.388 597.296, 460.786 601.705 C 457.535 604.820, 456.995 610.537, 459.581 614.483 C 462.016 618.200, 469.882 622.755, 477.033 624.589 C 491.607 628.327, 506.531 624.418, 516.028 614.377 C 524.353 605.574, 525.287 602.477, 525.940 581.500 C 526.248 571.600, 526.275 554.547, 526 543.605 L 525.500 523.710 522.900 521.772 C 519.246 519.048, 511.641 519.150, 507.821 521.974 L 504.925 524.116 499.712 522.176 C 493.112 519.721, 485.722 518.913, 480.176 520.041 M 542.295 520.107 C 536.047 521.914, 536 522.183, 536 556.535 L 536 587.626 539.042 590.540 C 543.876 595.172, 552.359 594.248, 556.047 588.690 C 557.136 587.048, 557.625 581.807, 558 567.767 L 558.500 549.033 561.583 545.953 C 563.974 543.564, 565.933 542.701, 570.317 542.106 C 576.575 541.257, 579.559 539.195, 581.638 534.282 C 583.772 529.239, 583.324 526.170, 579.960 522.806 C 577.127 519.973, 576.519 519.794, 571.050 520.190 C 566.803 520.497, 564.023 521.381, 560.991 523.387 L 556.801 526.160 555.270 523.975 C 553.870 521.977, 548.160 518.874, 546.282 519.090 C 545.852 519.140, 544.058 519.597, 542.295 520.107 M 608.887 520.451 C 597.178 523.680, 589.063 530.366, 584.160 540.825 C 581.809 545.841, 581.500 547.720, 581.500 557 C 581.500 566.597, 581.744 567.963, 584.334 572.883 C 588.294 580.404, 595.250 587.484, 601.875 590.738 C 606.982 593.246, 608.512 593.500, 618.500 593.500 C 628.577 593.500, 629.988 593.260, 635.322 590.641 C 646.313 585.244, 652.961 576.499, 655.564 564.014 C 661.167 537.144, 635.436 513.130, 608.887 520.451 M 689.741 520.501 C 686.574 521.302, 682.550 522.698, 680.799 523.604 C 674.932 526.638, 667.386 534.758, 664.374 541.278 C 661.840 546.763, 661.502 548.625, 661.518 557 C 661.534 565.119, 661.913 567.300, 664.128 572 C 667.963 580.137, 674.029 586.396, 681.779 590.213 C 688.042 593.298, 689.100 593.500, 698.976 593.500 C 708.483 593.500, 710.108 593.219, 715.792 590.595 C 723.637 586.972, 727 583.201, 727 578.029 C 727 575.213, 726.253 573.412, 724.152 571.163 C 719.735 566.435, 716.699 566.154, 709.970 569.853 C 700.191 575.229, 691.582 573.761, 685.609 565.699 C 682.800 561.908, 682.758 552.847, 685.529 548.181 C 690.411 539.960, 700.363 538.200, 710.188 543.821 C 716.782 547.594, 719.448 547.399, 724.042 542.804 C 726.343 540.503, 727 538.949, 727 535.805 C 727 524.878, 706.204 516.335, 689.741 520.501 M 757.105 520.521 C 749.927 522.533, 742.427 526.708, 739.258 530.454 C 737.840 532.129, 735.292 536.425, 733.595 540 C 729.442 548.750, 728.762 560.654, 731.933 569.105 C 738.108 585.567, 750.368 594, 768.122 594 C 780.151 594, 792.280 588.874, 796.282 582.099 C 798.511 578.327, 797.805 575.203, 793.800 571.106 C 789.996 567.216, 785.501 566.993, 780.229 570.433 C 772.440 575.515, 762.269 575.045, 755.922 569.311 C 753.765 567.362, 752 565.370, 752 564.884 C 752 564.398, 762.317 564, 774.927 564 L 797.855 564 799.927 561.365 C 801.513 559.349, 801.999 557.293, 801.994 552.615 C 801.987 544.604, 800.732 540.382, 796.654 534.647 C 788.098 522.611, 771.188 516.571, 757.105 520.521 M 863.325 520.420 C 857.028 523.237, 856.730 524.585, 857.184 548.245 C 857.648 572.404, 858.310 575.041, 866.004 583.389 C 873.574 591.601, 888.646 594.612, 898.899 589.960 C 901.318 588.863, 903.510 588.176, 903.769 588.436 C 905.228 589.894, 902.458 596.777, 899.035 600.201 C 895.532 603.703, 894.794 604, 889.584 604 C 885.489 604, 882.529 603.288, 878.831 601.414 C 872.504 598.208, 868.261 598.713, 864.560 603.111 C 859.020 609.695, 862.106 616.897, 872.687 622.077 C 876.836 624.108, 879.017 624.437, 888.500 624.466 C 902.409 624.509, 907.445 622.527, 915.477 613.852 C 924.609 603.987, 925 601.773, 925 559.849 L 925 524.909 922.586 522.495 C 919.391 519.300, 915.681 518.479, 910.905 519.910 C 904.134 521.939, 903.527 523.881, 903.310 544.199 C 903.104 563.475, 902.339 566.613, 897.288 568.915 C 894.139 570.350, 887.742 570.295, 884.472 568.805 C 879.687 566.625, 879 563.651, 879 545.115 C 879 535.773, 878.570 526.999, 878.045 525.617 C 876.125 520.567, 868.788 517.977, 863.325 520.420 M 758.781 540.995 C 755.553 542.749, 753 545.593, 753 547.434 C 753 547.745, 759.355 548, 767.122 548 L 781.244 548 779.772 545.783 C 775.542 539.413, 765.787 537.188, 758.781 540.995 M 482.500 541.209 C 478.280 542.689, 476.003 544.879, 473.881 549.500 C 471.553 554.570, 471.557 558.428, 473.896 563.579 C 476.280 568.826, 480.037 571.733, 485.495 572.552 C 496.869 574.257, 506.634 564.524, 504.573 553.537 C 503.670 548.725, 497.827 542.324, 493.152 541.025 C 488.717 539.794, 486.426 539.833, 482.500 541.209 M 612.390 541.432 C 605.007 544.646, 600.942 553.303, 603.063 561.296 C 605.064 568.835, 610.665 573, 618.802 573 C 624.827 573, 629.515 570.126, 632.718 564.470 C 636.497 557.799, 635.471 551.189, 629.733 545.240 C 624.997 540.331, 618.299 538.860, 612.390 541.432 M 252 553.827 C 252 554.282, 250.650 554.455, 249 554.213 C 246.845 553.897, 246 554.181, 246 555.221 C 246 557.189, 252.598 577.895, 255.040 583.593 L 257.009 588.186 262.254 587.472 C 265.139 587.079, 267.774 586.325, 268.110 585.797 C 268.491 585.196, 270.284 585.305, 272.892 586.086 C 275.648 586.911, 277.401 586.999, 278.055 586.345 C 278.709 585.691, 277.492 580.795, 274.469 571.927 C 267.220 550.663, 269.022 553, 259.879 553 C 255.545 553, 252 553.372, 252 553.827 M 281.452 554.716 C 281.833 555.697, 283.506 560.550, 285.171 565.500 C 286.836 570.450, 288.828 575, 289.599 575.610 C 290.370 576.221, 291.007 577.796, 291.015 579.110 C 291.046 583.858, 292.142 584.363, 300.956 583.683 C 305.437 583.337, 309.487 582.817, 309.957 582.526 C 311.451 581.603, 309.898 578.211, 307.658 577.503 L 305.500 576.822 307.648 576.161 L 309.795 575.500 306.648 564.500 L 303.500 553.500 292.130 553.216 C 281.566 552.952, 280.809 553.059, 281.452 554.716 M 317 553.566 C 317 554.048, 319.245 563.104, 323.118 578.250 C 323.951 581.507, 324.461 582, 326.993 582 C 329.599 582, 329.968 581.601, 330.458 578.250 C 331.104 573.832, 333.926 558.483, 334.687 555.250 C 335.207 553.043, 335.044 553, 326.108 553 C 321.099 553, 317 553.255, 317 553.566 M 347.518 555.250 C 346.698 558.794, 343.006 578.417, 343.003 579.250 C 342.999 580.257, 353.164 580.183, 354.768 579.164 C 355.466 578.722, 357.332 575.016, 358.916 570.930 C 360.499 566.843, 362.735 561.138, 363.883 558.250 L 365.971 553 357.004 553 C 348.527 553, 348.010 553.123, 347.518 555.250 M 377.303 559.250 C 376.146 562.688, 374.042 568.365, 372.628 571.866 L 370.058 578.232 378.779 577.513 C 385.258 576.979, 387.757 576.371, 388.498 575.147 C 389.638 573.265, 393.121 565.305, 396.005 557.986 L 397.971 553 388.689 553 L 379.408 553 377.303 559.250 M 261.127 648.498 C 252.760 651.107, 246.597 659.659, 246.674 668.552 C 246.772 679.930, 255.848 688.926, 267.282 688.978 C 279.418 689.034, 288 680.555, 288 668.508 C 288 665.443, 287.391 661.488, 286.648 659.718 C 284.584 654.808, 279.146 650.121, 273.603 648.475 C 267.701 646.722, 266.815 646.724, 261.127 648.498 M 361.259 648.602 C 358.833 649.494, 355.567 651.856, 353.627 654.122 C 341.776 667.968, 350.814 689.057, 368.566 688.978 C 378.114 688.936, 386.446 682.620, 389.004 673.487 C 393.450 657.607, 376.974 642.829, 361.259 648.602 M 264.500 662.171 C 261.708 663.788, 261.033 665.033, 261.015 668.595 C 260.995 672.602, 263.713 675, 268.272 675 C 274.199 675, 277.093 668.695, 273.250 664.153 C 271.050 661.554, 267.108 660.661, 264.500 662.171 M 365.500 662.195 C 362.771 663.743, 362.033 665.024, 362.015 668.250 C 361.994 672.061, 365.228 675, 369.443 675 C 375.684 675, 378.150 668.059, 373.545 663.455 C 370.877 660.786, 368.610 660.431, 365.500 662.195" stroke="none" fill="#27403d" fill-rule="evenodd"/></svg>